{
    "asset": {
        "generator": "SOLIDWORKSGLTF",
        "version": "2.0"
    },
    "scene": 0,
    "scenes": [
        {
            "name": "Default",
            "nodes": [
                0,
                1
            ]
        }
    ],
    "nodes": [
        {
            "matrix": [
                -0.9970998854660769,
                0.0,
                0.07610399729013398,
                0.0,
                0.07583688819204712,
                0.083709394149137,
                0.9936002736113408,
                0.0,
                -0.00637061950548468,
                0.9964902093503903,
                -0.0834666273185392,
                0.0,
                -0.0003063582092173621,
                0.056440043632746455,
                -0.004013846134227348,
                1.0
            ],
            "camera": 0,
            "name": "current camera"
        },
        {
            "mesh": 0,
            "name": "CarePackage SCREW"
        }
    ],
    "cameras": [
        {
            "type": "orthographic",
            "orthographic": {
                "xmag": 0.009573687895803358,
                "ymag": 0.007397849737666231,
                "zfar": 0.08698528889788995,
                "znear": 0.028641205866622638
            }
        }
    ],
    "meshes": [
        {
            "primitives": [
                {
                    "attributes": {
                        "POSITION": 1,
                        "NORMAL": 2
                    },
                    "indices": 0,
                    "material": 0,
                    "mode": 4
                }
            ]
        }
    ],
    "accessors": [
        {
            "bufferView": 0,
            "byteOffset": 0,
            "componentType": 5125,
            "count": 56130,
            "type": "SCALAR",
            "min": [
                0
            ],
            "max": [
                25741
            ]
        },
        {
            "bufferView": 1,
            "byteOffset": 0,
            "componentType": 5126,
            "count": 25742,
            "type": "VEC3",
            "min": [
                -0.008496266789734364,
                -0.004999999888241291,
                -0.008485071361064911
            ],
            "max": [
                0.008496266789734364,
                0.02199999988079071,
                0.008500000461935997
            ]
        },
        {
            "bufferView": 2,
            "byteOffset": 0,
            "componentType": 5126,
            "count": 25742,
            "type": "VEC3",
            "min": [
                -1.0,
                -1.0,
                -1.0
            ],
            "max": [
                1.0,
                1.0,
                1.0
            ]
        }
    ],
    "materials": [
        {
            "name": "PlasticPolystyrene",
            "pbrMetallicRoughness": {
                "baseColorFactor": [
                    0.4534565012079905,
                    0.4534565012079905,
                    0.4534565012079905,
                    1.0
                ],
                "metallicFactor": 0.0,
                "roughnessFactor": 1.0
            }
        }
    ],
    "bufferViews": [
        {
            "buffer": 0,
            "byteOffset": 0,
            "byteLength": 224520,
            "target": 34963
        },
        {
            "buffer": 0,
            "byteOffset": 224520,
            "byteLength": 308904,
            "byteStride": 12,
            "target": 34962
        },
        {
            "buffer": 0,
            "byteOffset": 533424,
            "byteLength": 308904,
            "byteStride": 12,
            "target": 34962
        }
    ],
    "buffers": [
        {
            "uri": "CarePackage SCREW.bin",
            "byteLength": 842328
        }
    ]
}
