{
    "asset": {
        "generator": "SOLIDWORKSGLTF",
        "version": "2.0"
    },
    "scene": 0,
    "scenes": [
        {
            "name": "Default",
            "nodes": [
                0,
                1
            ]
        }
    ],
    "nodes": [
        {
            "matrix": [
                0.9781533342996971,
                0.16654496843579183,
                -0.12441393847598528,
                0.0,
                -0.19693376995201217,
                0.9340396042704558,
                -0.29797165621377153,
                0.0,
                0.06658186578095493,
                0.3159632749909572,
                0.9464322817857154,
                0.0,
                0.024160306733031687,
                0.12215238395793794,
                0.352228258757572,
                1.0
            ],
            "camera": 0,
            "name": "current camera"
        },
        {
            "mesh": 0,
            "name": "CarePackageTop"
        }
    ],
    "cameras": [
        {
            "type": "orthographic",
            "orthographic": {
                "xmag": 0.09944245361221471,
                "ymag": 0.076841895973075,
                "zfar": 0.41250244864282165,
                "znear": 0.3380480330585193
            }
        }
    ],
    "meshes": [
        {
            "primitives": [
                {
                    "attributes": {
                        "POSITION": 1,
                        "NORMAL": 2
                    },
                    "indices": 0,
                    "material": 0,
                    "mode": 4
                }
            ]
        }
    ],
    "accessors": [
        {
            "bufferView": 0,
            "byteOffset": 0,
            "componentType": 5125,
            "count": 1308,
            "type": "SCALAR",
            "min": [
                0
            ],
            "max": [
                601
            ]
        },
        {
            "bufferView": 1,
            "byteOffset": 0,
            "componentType": 5126,
            "count": 602,
            "type": "VEC3",
            "min": [
                -0.02199999988079071,
                0.0,
                0.00009999999747378752
            ],
            "max": [
                0.02199999988079071,
                0.014999999664723873,
                0.017500000074505806
            ]
        },
        {
            "bufferView": 2,
            "byteOffset": 0,
            "componentType": 5126,
            "count": 602,
            "type": "VEC3",
            "min": [
                -1.0,
                -1.0,
                -1.0
            ],
            "max": [
                1.0,
                1.0,
                1.0
            ]
        }
    ],
    "materials": [
        {
            "name": "defaultplastic",
            "pbrMetallicRoughness": {
                "baseColorFactor": [
                    0.5989418101001601,
                    0.6455552910764322,
                    0.8591735777059335,
                    1.0
                ],
                "metallicFactor": 0.0,
                "roughnessFactor": 0.16999999880790712
            }
        }
    ],
    "bufferViews": [
        {
            "buffer": 0,
            "byteOffset": 0,
            "byteLength": 5232,
            "target": 34963
        },
        {
            "buffer": 0,
            "byteOffset": 5232,
            "byteLength": 7224,
            "byteStride": 12,
            "target": 34962
        },
        {
            "buffer": 0,
            "byteOffset": 12456,
            "byteLength": 7224,
            "byteStride": 12,
            "target": 34962
        }
    ],
    "buffers": [
        {
            "uri": "CarePackageTop.bin",
            "byteLength": 19680
        }
    ]
}
