{
    "asset": {
        "generator": "SOLIDWORKSGLTF",
        "version": "2.0"
    },
    "scene": 0,
    "scenes": [
        {
            "name": "Default",
            "nodes": [
                0,
                1
            ]
        }
    ],
    "nodes": [
        {
            "matrix": [
                -1.1463624848127356e-13,
                0.0,
                1.0,
                0.0,
                0.9995875162717895,
                0.028719284698525003,
                1.1458896289411193e-13,
                0.0,
                -0.028719284698525003,
                0.9995875162717895,
                -3.2922710569045492e-15,
                0.0,
                -0.00085828516160429,
                0.04987299795056939,
                -1.0430101487971218e-16,
                1.0
            ],
            "camera": 0,
            "name": "current camera"
        },
        {
            "mesh": 0,
            "name": "CarePackageCirclePin"
        }
    ],
    "cameras": [
        {
            "type": "orthographic",
            "orthographic": {
                "xmag": 0.0030077957875690167,
                "ymag": 0.0023242058358487853,
                "zfar": 0.07022612336818454,
                "znear": 0.009714926057273553
            }
        }
    ],
    "meshes": [
        {
            "primitives": [
                {
                    "attributes": {
                        "POSITION": 1,
                        "NORMAL": 2
                    },
                    "indices": 0,
                    "material": 0,
                    "mode": 4
                }
            ]
        }
    ],
    "accessors": [
        {
            "bufferView": 0,
            "byteOffset": 0,
            "componentType": 5125,
            "count": 3960,
            "type": "SCALAR",
            "min": [
                0
            ],
            "max": [
                1853
            ]
        },
        {
            "bufferView": 1,
            "byteOffset": 0,
            "componentType": 5126,
            "count": 1854,
            "type": "VEC3",
            "min": [
                -0.0018489669309929013,
                0.0,
                -0.0018500000005587935
            ],
            "max": [
                0.0018489669309929013,
                0.03999999910593033,
                0.0018500000005587935
            ]
        },
        {
            "bufferView": 2,
            "byteOffset": 0,
            "componentType": 5126,
            "count": 1854,
            "type": "VEC3",
            "min": [
                -1.0,
                -1.0,
                -1.0
            ],
            "max": [
                1.0,
                1.0,
                1.0
            ]
        }
    ],
    "materials": [
        {
            "name": "PlasticPolystyrene",
            "pbrMetallicRoughness": {
                "baseColorFactor": [
                    0.4534565012079905,
                    0.4534565012079905,
                    0.4534565012079905,
                    1.0
                ],
                "metallicFactor": 0.0,
                "roughnessFactor": 1.0
            }
        }
    ],
    "bufferViews": [
        {
            "buffer": 0,
            "byteOffset": 0,
            "byteLength": 15840,
            "target": 34963
        },
        {
            "buffer": 0,
            "byteOffset": 15840,
            "byteLength": 22248,
            "byteStride": 12,
            "target": 34962
        },
        {
            "buffer": 0,
            "byteOffset": 38088,
            "byteLength": 22248,
            "byteStride": 12,
            "target": 34962
        }
    ],
    "buffers": [
        {
            "uri": "CarePackageCirclePin.bin",
            "byteLength": 60336
        }
    ]
}
