{
    "asset": {
        "generator": "SOLIDWORKSGLTF",
        "version": "2.0"
    },
    "scene": 0,
    "scenes": [
        {
            "name": "Default",
            "nodes": [
                0,
                1
            ]
        }
    ],
    "nodes": [
        {
            "matrix": [
                -0.20925283780065737,
                0.9636514330878483,
                -0.16609986568359375,
                0.0,
                0.9255064980408906,
                0.14033666214635326,
                -0.35177172049740923,
                0.0,
                -0.31567542184411324,
                -0.22733573578598767,
                -0.9212315079708165,
                0.0,
                -0.10097920618355387,
                -0.03347084092970864,
                -0.29468631369125436,
                1.0
            ],
            "camera": 0,
            "name": "current camera"
        },
        {
            "mesh": 0,
            "name": "CarePackageSlider"
        }
    ],
    "cameras": [
        {
            "type": "orthographic",
            "orthographic": {
                "xmag": 0.07341217749314453,
                "ymag": 0.05672759169924804,
                "zfar": 0.4264768718890315,
                "znear": 0.26658608884896734
            }
        }
    ],
    "meshes": [
        {
            "primitives": [
                {
                    "attributes": {
                        "POSITION": 1,
                        "NORMAL": 2
                    },
                    "indices": 0,
                    "material": 0,
                    "mode": 4
                }
            ]
        }
    ],
    "accessors": [
        {
            "bufferView": 0,
            "byteOffset": 0,
            "componentType": 5125,
            "count": 192,
            "type": "SCALAR",
            "min": [
                0
            ],
            "max": [
                113
            ]
        },
        {
            "bufferView": 1,
            "byteOffset": 0,
            "componentType": 5126,
            "count": 114,
            "type": "VEC3",
            "min": [
                -0.035999998450279236,
                -1.3619066811798586e-11,
                -0.0020000000949949026
            ],
            "max": [
                0.035999998450279236,
                0.07850000262260437,
                0.0020000000949949026
            ]
        },
        {
            "bufferView": 2,
            "byteOffset": 0,
            "componentType": 5126,
            "count": 114,
            "type": "VEC3",
            "min": [
                -1.0,
                -1.0,
                -1.0
            ],
            "max": [
                1.0,
                1.0,
                1.0
            ]
        }
    ],
    "materials": [
        {
            "name": "PlasticPolystyrene",
            "pbrMetallicRoughness": {
                "baseColorFactor": [
                    0.4534565012079905,
                    0.4534565012079905,
                    0.4534565012079905,
                    1.0
                ],
                "metallicFactor": 0.0,
                "roughnessFactor": 1.0
            }
        }
    ],
    "bufferViews": [
        {
            "buffer": 0,
            "byteOffset": 0,
            "byteLength": 768,
            "target": 34963
        },
        {
            "buffer": 0,
            "byteOffset": 768,
            "byteLength": 1368,
            "byteStride": 12,
            "target": 34962
        },
        {
            "buffer": 0,
            "byteOffset": 2136,
            "byteLength": 1368,
            "byteStride": 12,
            "target": 34962
        }
    ],
    "buffers": [
        {
            "uri": "CarePackageSlider.bin",
            "byteLength": 3504
        }
    ]
}
