{
    "asset": {
        "generator": "SOLIDWORKSGLTF",
        "version": "2.0"
    },
    "scene": 0,
    "scenes": [
        {
            "name": "Default",
            "nodes": [
                0,
                1
            ]
        }
    ],
    "nodes": [
        {
            "matrix": [
                -0.054806549283446845,
                0.3092027930256899,
                -0.9494155438693606,
                0.0,
                -0.10926996786408173,
                0.943276607679601,
                0.3135112685812852,
                0.0,
                0.9925000333897344,
                0.12092507676068084,
                -0.01791115662931315,
                0.0,
                0.6901095363829288,
                0.145151923736682,
                -0.016500525966307432,
                1.0
            ],
            "camera": 0,
            "name": "current camera"
        },
        {
            "mesh": 0,
            "name": "Charm Stand"
        }
    ],
    "cameras": [
        {
            "type": "orthographic",
            "orthographic": {
                "xmag": 0.1872416774104072,
                "ymag": 0.14468675072622375,
                "zfar": 0.8441934015892147,
                "znear": 0.6208899689780325
            }
        }
    ],
    "meshes": [
        {
            "primitives": [
                {
                    "attributes": {
                        "POSITION": 1,
                        "NORMAL": 2
                    },
                    "indices": 0,
                    "material": 0,
                    "mode": 4
                }
            ]
        }
    ],
    "accessors": [
        {
            "bufferView": 0,
            "byteOffset": 0,
            "componentType": 5125,
            "count": 30702,
            "type": "SCALAR",
            "min": [
                0
            ],
            "max": [
                12381
            ]
        },
        {
            "bufferView": 1,
            "byteOffset": 0,
            "componentType": 5126,
            "count": 12382,
            "type": "VEC3",
            "min": [
                -0.027990717440843582,
                0.0,
                -0.03206692263484001
            ],
            "max": [
                0.027990717440843582,
                0.11939331889152527,
                0.02800000086426735
            ]
        },
        {
            "bufferView": 2,
            "byteOffset": 0,
            "componentType": 5126,
            "count": 12382,
            "type": "VEC3",
            "min": [
                -1.0,
                -1.0,
                -1.0
            ],
            "max": [
                1.0,
                1.0,
                1.0
            ]
        }
    ],
    "materials": [
        {
            "name": "defaultplastic",
            "pbrMetallicRoughness": {
                "baseColorFactor": [
                    0.5989418101001601,
                    0.6455552910764322,
                    0.8591735777059335,
                    1.0
                ],
                "metallicFactor": 0.0,
                "roughnessFactor": 0.16999999880790712
            }
        }
    ],
    "bufferViews": [
        {
            "buffer": 0,
            "byteOffset": 0,
            "byteLength": 122808,
            "target": 34963
        },
        {
            "buffer": 0,
            "byteOffset": 122808,
            "byteLength": 148584,
            "byteStride": 12,
            "target": 34962
        },
        {
            "buffer": 0,
            "byteOffset": 271392,
            "byteLength": 148584,
            "byteStride": 12,
            "target": 34962
        }
    ],
    "buffers": [
        {
            "uri": "Charm Stand.bin",
            "byteLength": 419976
        }
    ]
}
