{
    "asset": {
        "generator": "SOLIDWORKSGLTF",
        "version": "2.0"
    },
    "scene": 0,
    "scenes": [
        {
            "name": "Default",
            "nodes": [
                0,
                1
            ]
        }
    ],
    "nodes": [
        {
            "matrix": [
                0.9253767893261456,
                -0.09657240640018865,
                0.3665399952235924,
                0.0,
                0.2146567136745305,
                0.930511962769854,
                -0.29676587138120264,
                0.0,
                -0.3124104560524262,
                0.3533005200452876,
                0.8818040879270431,
                0.0,
                -0.08539869830057799,
                0.08157406746259228,
                0.24104481718262094,
                1.0
            ],
            "camera": 0,
            "name": "current camera"
        },
        {
            "mesh": 0,
            "name": "Clamp Main"
        }
    ],
    "cameras": [
        {
            "type": "orthographic",
            "orthographic": {
                "xmag": 0.07084459065056248,
                "ymag": 0.05474354732088918,
                "zfar": 0.3465968214570432,
                "znear": 0.23673283172569395
            }
        }
    ],
    "meshes": [
        {
            "primitives": [
                {
                    "attributes": {
                        "POSITION": 1,
                        "NORMAL": 2
                    },
                    "indices": 0,
                    "material": 0,
                    "mode": 4
                }
            ]
        }
    ],
    "accessors": [
        {
            "bufferView": 0,
            "byteOffset": 0,
            "componentType": 5125,
            "count": 20184,
            "type": "SCALAR",
            "min": [
                0
            ],
            "max": [
                9573
            ]
        },
        {
            "bufferView": 1,
            "byteOffset": 0,
            "componentType": 5126,
            "count": 9574,
            "type": "VEC3",
            "min": [
                -0.019999999552965164,
                -0.04399999976158142,
                -0.009999999776482582
            ],
            "max": [
                0.019999999552965164,
                0.014000000432133675,
                0.009999999776482582
            ]
        },
        {
            "bufferView": 2,
            "byteOffset": 0,
            "componentType": 5126,
            "count": 9574,
            "type": "VEC3",
            "min": [
                -1.0,
                -1.0,
                -1.0
            ],
            "max": [
                1.0,
                1.0,
                1.0
            ]
        }
    ],
    "materials": [
        {
            "name": "defaultplastic",
            "pbrMetallicRoughness": {
                "baseColorFactor": [
                    0.5989418101001601,
                    0.6455552910764322,
                    0.8591735777059335,
                    1.0
                ],
                "metallicFactor": 0.0,
                "roughnessFactor": 0.16999999880790712
            }
        }
    ],
    "bufferViews": [
        {
            "buffer": 0,
            "byteOffset": 0,
            "byteLength": 80736,
            "target": 34963
        },
        {
            "buffer": 0,
            "byteOffset": 80736,
            "byteLength": 114888,
            "byteStride": 12,
            "target": 34962
        },
        {
            "buffer": 0,
            "byteOffset": 195624,
            "byteLength": 114888,
            "byteStride": 12,
            "target": 34962
        }
    ],
    "buffers": [
        {
            "uri": "Clamp Main.bin",
            "byteLength": 310512
        }
    ]
}
