{
    "asset": {
        "generator": "SOLIDWORKSGLTF",
        "version": "2.0"
    },
    "scene": 0,
    "scenes": [
        {
            "name": "Default",
            "nodes": [
                0,
                1
            ]
        }
    ],
    "nodes": [
        {
            "matrix": [
                -0.8487757546887048,
                -0.013608194267924617,
                0.5285778422346001,
                0.0,
                0.31392673198366106,
                0.7914421503783157,
                0.5244705230521599,
                0.0,
                -0.4254758808659759,
                0.6110925786272601,
                -0.6674849325250779,
                0.0,
                -0.2082744370768094,
                0.3316355527753179,
                -0.32674013929054174,
                1.0
            ],
            "camera": 0,
            "name": "current camera"
        },
        {
            "mesh": 0,
            "name": "Cup thing"
        }
    ],
    "cameras": [
        {
            "type": "orthographic",
            "orthographic": {
                "xmag": 0.1221502347899971,
                "ymag": 0.09438881779227049,
                "zfar": 0.6712372041631248,
                "znear": 0.3986454764823312
            }
        }
    ],
    "meshes": [
        {
            "primitives": [
                {
                    "attributes": {
                        "POSITION": 1,
                        "NORMAL": 2
                    },
                    "indices": 0,
                    "material": 0,
                    "mode": 4
                }
            ]
        }
    ],
    "accessors": [
        {
            "bufferView": 0,
            "byteOffset": 0,
            "componentType": 5125,
            "count": 13338,
            "type": "SCALAR",
            "min": [
                0
            ],
            "max": [
                5841
            ]
        },
        {
            "bufferView": 1,
            "byteOffset": 0,
            "componentType": 5126,
            "count": 5842,
            "type": "VEC3",
            "min": [
                -0.05999999865889549,
                0.0,
                -0.05999999865889549
            ],
            "max": [
                0.05999999865889549,
                0.06499999761581421,
                0.05999999865889549
            ]
        },
        {
            "bufferView": 2,
            "byteOffset": 0,
            "componentType": 5126,
            "count": 5842,
            "type": "VEC3",
            "min": [
                -1.0,
                -1.0,
                -1.0
            ],
            "max": [
                1.0,
                1.0,
                1.0
            ]
        }
    ],
    "materials": [
        {
            "name": "defaultplastic",
            "pbrMetallicRoughness": {
                "baseColorFactor": [
                    0.5989418101001601,
                    0.6455552910764322,
                    0.8591735777059335,
                    1.0
                ],
                "metallicFactor": 0.0,
                "roughnessFactor": 0.16999999880790712
            }
        }
    ],
    "bufferViews": [
        {
            "buffer": 0,
            "byteOffset": 0,
            "byteLength": 53352,
            "target": 34963
        },
        {
            "buffer": 0,
            "byteOffset": 53352,
            "byteLength": 70104,
            "byteStride": 12,
            "target": 34962
        },
        {
            "buffer": 0,
            "byteOffset": 123456,
            "byteLength": 70104,
            "byteStride": 12,
            "target": 34962
        }
    ],
    "buffers": [
        {
            "uri": "Cup thing.bin",
            "byteLength": 193560
        }
    ]
}
